<?xml version="1.0" encoding="utf-8"?><!-- Uploaded to: SVG Repo, www.svgrepo.com, Generator: SVG Repo Mixer Tools -->
<svg width="800px" height="800px" viewBox="0 0 24 24" fill="none" xmlns="http://www.w3.org/2000/svg">
<path d="M18.2171 20.6001L17.24 14.9144C17.2057 14.7258 17.2685 14.5373 17.4057 14.4001L21.5371 10.3716C21.88 10.0344 21.6914 9.45155 21.2171 9.38298L15.3371 8.52584C15.2571 8.51441 15.1828 8.46298 15.1485 8.3887L12.52 3.05727C12.3085 2.6287 11.6971 2.6287 11.48 3.05727L8.85141 8.3887C8.81712 8.46298 8.74283 8.51441 8.66283 8.52584L2.78283 9.38298C2.30855 9.45155 2.11998 10.0344 2.46283 10.3716L6.71998 14.5201C6.77712 14.5773 6.80569 14.663 6.79426 14.743L5.78283 20.6001C5.70283 21.0744 6.19998 21.4344 6.62283 21.2116L11.8857 18.4458C11.96 18.4058 12.0457 18.4058 12.12 18.4458L17.3828 21.2116C17.8 21.4344 18.2971 21.0744 18.2171 20.6001ZM17.7943 20.8973C17.7543 20.9258 17.6571 20.983 17.5314 20.9144L12.2743 18.1487C12.1885 18.103 12.0971 18.0801 12.0057 18.0801C11.9143 18.0801 11.8228 18.103 11.7371 18.1487L6.47998 20.9144C6.35426 20.9773 6.25712 20.9201 6.21712 20.8973C6.17712 20.8687 6.09141 20.7887 6.11998 20.6516L7.11426 14.8001C7.14855 14.6116 7.08569 14.423 6.94855 14.2858L2.69141 10.1373C2.58855 10.0401 2.61141 9.92584 2.62855 9.88013C2.64569 9.83441 2.69141 9.73155 2.82855 9.7087L8.70855 8.85155C8.89712 8.82298 9.06283 8.70298 9.14283 8.53727L11.7714 3.20584C11.8343 3.08013 11.9485 3.0687 11.9943 3.0687C12.04 3.0687 12.1543 3.08013 12.2171 3.20584L14.8457 8.53727C14.9314 8.7087 15.0914 8.8287 15.28 8.85155L21.16 9.7087C21.2971 9.73155 21.3485 9.83441 21.36 9.88013C21.3771 9.92584 21.4 10.0401 21.2971 10.1373L17.1657 14.1658C16.9543 14.3716 16.8571 14.6744 16.9028 14.9658L17.88 20.6516C17.9143 20.7944 17.8285 20.8744 17.7943 20.8973Z" fill="url(#paint12_radial)"/>
<defs>
<radialGradient id="paint12_radial" cx="0" cy="0" r="1" gradientUnits="userSpaceOnUse" gradientTransform="translate(12 12.8584) scale(9.78074)">
<stop stop-color="#A3541E" stop-opacity="0.5"/>
<stop offset="0.5109" stop-color="#A5551D" stop-opacity="0.7555"/>
<stop offset="0.695" stop-color="#AC5819" stop-opacity="0.8475"/>
<stop offset="0.8261" stop-color="#B75E12" stop-opacity="0.9131"/>
<stop offset="0.9315" stop-color="#C86609" stop-opacity="0.9657"/>
<stop offset="1" stop-color="#D86D00"/>
</radialGradient>
</defs>
</svg>