<svg xmlns="http://www.w3.org/2000/svg" viewBox="0 0 1200 600" role="img" aria-labelledby="title desc">
  <title id="title">Simplified flat world map</title>
  <desc id="desc">A simplified decorative world map with blue oceans and yellow continents for the geo-browser intro map.</desc>
  <rect width="1200" height="600" fill="#1f8fcf"/>
  <g opacity="0.22" stroke="#ffffff" stroke-width="1" fill="none">
    <path d="M0 100H1200M0 200H1200M0 300H1200M0 400H1200M0 500H1200"/>
    <path d="M100 0V600M200 0V600M300 0V600M400 0V600M500 0V600M600 0V600M700 0V600M800 0V600M900 0V600M1000 0V600M1100 0V600"/>
  </g>
  <g fill="#f2d34f" stroke="#d4a93a" stroke-width="3" stroke-linejoin="round">
    <!-- North America -->
    <path d="M88 178 C120 118 198 91 278 105 C340 116 377 145 407 191 C438 237 426 283 377 306 C334 327 300 301 260 315 C219 329 170 328 137 296 C101 262 66 222 88 178 Z"/>
    <path d="M214 308 C248 318 277 344 289 383 C303 428 279 458 246 448 C219 439 212 400 194 371 C177 343 181 315 214 308 Z"/>
    <!-- South America -->
    <path d="M354 345 C389 354 421 386 430 432 C441 486 410 543 377 566 C351 584 329 565 339 523 C348 486 327 462 321 426 C315 390 323 355 354 345 Z"/>
    <!-- Europe -->
    <path d="M552 181 C591 153 649 154 690 184 C720 207 719 241 681 254 C640 268 616 248 582 258 C548 268 520 250 520 221 C520 205 533 193 552 181 Z"/>
    <!-- Africa -->
    <path d="M592 260 C641 238 703 263 724 318 C748 379 715 462 665 493 C630 515 586 488 577 431 C569 382 541 351 554 306 C560 285 574 268 592 260 Z"/>
    <!-- Asia -->
    <path d="M693 174 C754 113 858 107 944 139 C1023 168 1090 219 1101 282 C1111 339 1053 372 996 344 C947 320 900 337 861 307 C821 277 783 286 745 266 C702 243 662 205 693 174 Z"/>
    <path d="M886 340 C925 357 958 388 969 425 C979 461 950 487 919 466 C889 445 879 404 860 374 C844 349 858 329 886 340 Z"/>
    <!-- Australia -->
    <path d="M914 448 C950 421 1011 423 1053 456 C1089 484 1080 523 1038 539 C998 554 946 545 914 516 C887 491 887 469 914 448 Z"/>
    <!-- Greenland -->
    <path d="M347 72 C386 44 455 45 489 75 C521 103 496 136 447 139 C405 142 362 130 341 105 C329 91 331 82 347 72 Z"/>
    <!-- Antarctica -->
    <path d="M39 557 C148 535 266 556 380 545 C489 535 599 559 713 546 C826 533 952 545 1061 535 C1117 530 1163 541 1200 551 L1200 600 L0 600 L0 571 C12 567 25 562 39 557 Z"/>
  </g>
</svg>
